<svg width="40" height="40" viewBox="0 0 40 40" fill="none" xmlns="http://www.w3.org/2000/svg">
<g clip-path="url(#clip0_421_94)">
<path d="M26.6673 10C27.1093 10 27.5333 10.1756 27.8458 10.4882C28.1584 10.8007 28.334 11.2246 28.334 11.6667C28.334 12.1087 28.1584 12.5326 27.8458 12.8452C27.5333 13.1577 27.1093 13.3333 26.6673 13.3333H13.334C12.892 13.3333 12.468 13.1577 12.1555 12.8452C11.8429 12.5326 11.6673 12.1087 11.6673 11.6667C11.6673 11.2246 11.8429 10.8007 12.1555 10.4882C12.468 10.1756 12.892 10 13.334 10H26.6673ZM39.5123 39.5117C39.1998 39.8241 38.7759 39.9996 38.334 39.9996C37.892 39.9996 37.4682 39.8241 37.1556 39.5117L33.144 35.5C31.9559 36.2583 30.5767 36.6629 29.1673 36.6667C27.684 36.6667 26.2339 36.2268 25.0005 35.4027C23.7672 34.5786 22.8059 33.4072 22.2382 32.0368C21.6706 30.6663 21.522 29.1583 21.8114 27.7035C22.1008 26.2486 22.8151 24.9123 23.864 23.8634C24.9129 22.8145 26.2493 22.1002 27.7041 21.8108C29.159 21.5214 30.667 21.6699 32.0374 22.2376C33.4079 22.8052 34.5792 23.7665 35.4033 24.9999C36.2275 26.2333 36.6673 27.6833 36.6673 29.1667C36.6636 30.5761 36.2589 31.9553 35.5006 33.1433L39.5123 37.155C39.8248 37.4675 40.0003 37.8914 40.0003 38.3333C40.0003 38.7753 39.8248 39.1991 39.5123 39.5117ZM29.1673 33.3333C29.9914 33.3333 30.797 33.089 31.4822 32.6311C32.1674 32.1733 32.7014 31.5225 33.0168 30.7612C33.3322 29.9998 33.4147 29.162 33.2539 28.3538C33.0932 27.5455 32.6963 26.8031 32.1136 26.2204C31.5309 25.6377 30.7884 25.2408 29.9802 25.0801C29.1719 24.9193 28.3342 25.0018 27.5728 25.3172C26.8114 25.6325 26.1607 26.1666 25.7029 26.8518C25.245 27.537 25.0007 28.3426 25.0007 29.1667C25.0007 30.2717 25.4396 31.3315 26.221 32.1129C27.0024 32.8943 28.0622 33.3333 29.1673 33.3333ZM21.6673 36.6667H11.6673C10.3412 36.6667 9.06947 36.1399 8.13178 35.2022C7.1941 34.2645 6.66732 32.9927 6.66732 31.6667V8.33333C6.66732 7.00725 7.1941 5.73548 8.13178 4.7978C9.06947 3.86012 10.3412 3.33333 11.6673 3.33333H31.6673C32.1093 3.33333 32.5333 3.50893 32.8458 3.82149C33.1584 4.13405 33.334 4.55797 33.334 5V18.3333C33.334 18.7754 33.5096 19.1993 33.8221 19.5118C34.1347 19.8244 34.5586 20 35.0007 20C35.4427 20 35.8666 19.8244 36.1792 19.5118C36.4917 19.1993 36.6673 18.7754 36.6673 18.3333V5C36.6673 3.67392 36.1405 2.40215 35.2029 1.46447C34.2652 0.526784 32.9934 0 31.6673 0L11.6673 0C9.45799 0.00264643 7.33991 0.88147 5.77768 2.4437C4.21545 4.00593 3.33663 6.12401 3.33398 8.33333V31.6667C3.33663 33.876 4.21545 35.9941 5.77768 37.5563C7.33991 39.1185 9.45799 39.9974 11.6673 40H21.6673C22.1093 40 22.5333 39.8244 22.8458 39.5118C23.1584 39.1993 23.334 38.7754 23.334 38.3333C23.334 37.8913 23.1584 37.4674 22.8458 37.1548C22.5333 36.8423 22.1093 36.6667 21.6673 36.6667Z" fill="#F5F3ED"/>
</g>
<defs>
<clipPath id="clip0_421_94">
<rect width="40" height="40" fill="white"/>
</clipPath>
</defs>
</svg>
