<svg width="157" height="119" viewBox="0 0 157 119" fill="none" xmlns="http://www.w3.org/2000/svg">
<path d="M86.8006 107.243C86.8879 107.26 86.8793 107.551 86.9549 107.626C87.269 107.947 87.3249 108.189 87.5954 108.507C88.0033 108.965 89.452 109.84 88.9021 110.958C88.9021 110.958 88.9021 110.958 88.9021 110.958C88.9021 110.958 88.9021 110.958 88.9021 110.958C88.9021 110.958 88.9021 110.958 88.9021 110.958C88.8966 110.969 88.8909 110.98 88.885 110.991C88.7739 111.204 88.5333 111.368 88.3917 111.608C88.2499 111.848 87.4758 113.457 87.2321 113.491C86.8835 113.53 86.4204 112.867 86.2642 112.827C86.1551 112.805 85.9469 112.928 85.7999 112.915C85.3248 112.875 85.17 112.663 84.5403 113.037C84.513 112.73 84.49 112.414 84.4711 112.09C84.2111 112.145 84.0908 111.673 83.963 111.646C83.8574 111.625 83.6901 111.827 83.5823 111.8C83.4605 111.772 83.4058 111.46 83.1802 111.418C82.8108 111.347 82.4446 111.945 82.1965 111.956C81.9384 111.969 81.7757 111.505 81.3886 111.639C81.3186 111.7 81.2485 111.761 81.1781 111.822C81.1223 111.994 81.0668 112.165 81.0115 112.336C80.8328 112.371 80.9382 112.015 80.813 111.968C80.6657 111.912 80.4279 112.214 80.3259 112.183C80.2425 112.156 80.2593 111.857 80.1432 111.839C79.9743 111.812 79.8181 112.21 79.6966 112.258C79.6491 112.275 78.908 112.312 78.8701 112.306C78.5895 112.246 78.8394 111.683 78.6497 111.566C78.1237 111.241 77.2863 111.512 76.642 111.532C76.3551 111.539 76.1146 111.427 75.9182 111.252C77.0722 109.811 76.8471 108.267 75.9362 110.867C75.8406 110.422 75.3157 111.036 75.1144 110.839C74.9851 110.71 75.0455 110.317 74.8056 110.245C74.3815 110.114 73.4041 111.015 74.2192 109.073C73.5679 109.232 73.4991 108.363 72.4731 110.028C72.2933 110.093 72.4804 108.943 72.4117 108.745C72.3432 108.566 71.5706 107.691 71.4215 107.594C71.2705 107.501 70.9982 107.354 70.7806 107.46C70.5109 107.584 69.4392 109.467 70.2374 107.091C69.7886 107.127 69.6913 107.012 69.4897 106.607C69.4531 106.534 69.6143 106.19 69.5794 106.175C69.5073 106.144 69.2598 106.345 69.1153 106.321C68.8775 106.284 69.1147 105.504 68.5915 106.626C68.3593 106.754 68.1264 106.884 67.8929 107.015C67.9497 106.778 68.0069 106.542 68.0643 106.305C67.8731 106.509 67.6815 106.715 67.4894 106.922C68.3801 105.328 67.3795 106.068 67.0874 107.081C66.9804 106.633 66.876 106.179 66.774 105.72C67.7408 103.848 66.2898 105.242 65.8311 106.305C65.8007 106.291 65.7703 106.276 65.7399 106.262C65.7171 105.641 65.2624 105.952 65.1003 105.468C64.9393 104.983 65.0634 104.807 65.4027 103.87C65.3005 103.886 65.1982 103.903 65.0959 103.919C63.4792 106.201 65.6515 101.964 64.0272 103.545C64.5752 101.882 63.6316 102.446 63.0343 102.761C62.965 102.798 62.8132 103.105 62.7107 103.174C62.4616 103.34 62.3078 102.784 61.8298 103.785C61.8504 103.443 61.8715 103.1 61.8931 102.755C61.7052 102.892 61.517 103.028 61.3287 103.165C61.1754 103.478 61.022 103.791 60.8687 104.104C61.1936 102.949 60.68 103.216 60.6518 102.89C60.6467 102.824 60.8534 102.387 60.8167 102.225C60.7749 102.032 60.5049 102.065 60.4397 101.867C60.151 102.325 59.862 102.784 59.5729 103.243C59.2064 103.397 59.7513 102.083 59.6616 101.918C59.6451 101.889 59.1443 101.768 59.1063 101.783C58.7988 101.906 58.3174 103.027 57.8508 102.521C57.7681 102.431 57.8712 102.012 57.7853 101.952C57.6339 101.847 56.7121 102.475 56.2799 103.255C56.571 102.163 55.8351 102.317 55.8201 101.953C55.8164 101.841 56.1196 101.198 56.0407 100.992C55.9771 100.824 55.4212 101.189 55.3136 101.03C55.2005 100.86 55.4081 100.296 55.3556 100.223C55.3058 100.155 55.0305 100.558 54.9402 100.511C54.9337 100.508 54.9274 100.504 54.9213 100.499L48.5475 97.319L54.2424 93.121C54.5196 92.9755 55.1882 93.4029 55.3933 93.2674C55.3966 93.2653 55.3997 93.263 55.4027 93.2607C55.6855 93.0399 55.0988 91.722 54.9652 91.0396C55.0814 91.0692 55.3246 91.2713 55.39 91.2266C56.205 90.682 57.2569 90.2453 58.2368 89.9168C58.6919 89.7647 60.7582 90.6392 58.6029 88.2554C58.399 87.7169 60.113 88.0887 60.3035 87.9777C60.4947 87.8677 60.2995 87.3155 60.4369 87.2118C60.8521 86.8995 61.3952 87.0158 61.6298 86.2726C61.6895 86.0794 61.4418 85.4545 61.5275 85.4077C61.6317 85.3525 62.1163 85.7926 62.2662 85.7411C62.6204 85.6143 63.058 85.0797 63.4129 84.9781C63.4784 84.9606 63.8245 85.3877 64.0019 85.4748C64.6938 85.8155 64.9848 85.5476 63.892 84.1987C64.8585 84.7421 64.6742 83.7988 64.9978 83.5354C65.6827 82.9794 67.2812 82.4368 67.5394 81.4985C67.7026 80.9074 67.2683 80.3458 68.2599 80.4829C68.4795 80.5126 68.726 80.5796 68.9889 80.6111C69.6099 80.6912 70.7173 81.4858 70.1082 80.0954C70.7782 80.158 70.9672 79.7458 72.0395 80.5634C71.8969 80.2991 71.7549 80.0355 71.6135 79.7728C71.6626 79.7362 71.7117 79.6996 71.7609 79.663C71.948 79.882 72.1349 80.1007 72.3216 80.319C72.7417 80.1483 72.5407 78.9474 72.8776 78.7777C73.437 78.486 75.1119 78.0485 75.8291 78.0223C76.2098 78.0083 75.9111 77.5795 76.7141 78.356C76.7297 78.2596 76.7456 78.1636 76.7619 78.0681C76.6596 77.8576 76.5581 77.648 76.4572 77.4393C76.809 77.2381 77.4419 77.2887 77.7758 77.0954C78.3791 76.7363 78.9767 75.7836 79.8242 75.747C80.0361 75.7371 80.4708 75.9522 80.6187 75.8625C80.8345 75.7327 80.5011 75.1837 80.7825 75.0292C81.2742 74.7716 82.6008 74.8431 83.0223 74.5417C83.1498 74.4553 83.0917 74.2572 83.1743 74.1903C83.5202 73.9089 83.8558 73.747 84.0763 73.3281C84.7782 73.5021 85.089 73.985 85.5628 74.3827C85.9235 74.6861 86.7814 75.2839 87.0339 75.5441C87.2136 75.7299 87.3279 76.0889 87.5336 76.2874C87.2956 76.8877 86.991 76.8653 86.4017 76.8216C85.8235 77.4249 85.2449 78.0275 84.6657 78.6293C84.487 78.5151 84.3064 78.3984 84.1242 78.2794C84.1239 78.2791 84.1236 78.2787 84.1233 78.2783C83.74 78.2937 83.9714 78.8284 83.9253 79.0521C83.5078 81.2256 80.6246 82.7392 79.1349 83.7508C78.8215 83.9789 78.1384 85.1723 77.636 84.9435C77.5052 84.8834 77.2008 84.5072 77.1325 84.5382C76.8085 85.1988 76.4933 85.871 76.1854 86.5531C74.6937 86.8044 74.0309 88.2435 73.0881 89.248C70.5163 91.9377 68.0276 94.6776 65.1049 96.7963C64.5389 97.2043 64.1288 98.1351 63.4031 98.3044C63.1008 98.3758 62.3887 97.6196 62.5519 98.4647C62.3822 98.2438 62.2125 98.0228 62.0428 97.8018C61.9839 98.2694 62.1974 98.9049 61.9442 99.1783C61.7307 99.4079 61.1036 99.9324 60.8212 100.01C60.676 100.052 60.4059 99.6013 60.3019 99.6823C60.2815 99.6987 60.264 99.725 60.2488 99.7588C60.1439 99.991 60.1412 100.58 59.979 100.813L59.1579 91.8896C59.1884 91.8938 59.2161 91.9015 59.2402 91.9135C59.4928 92.0393 59.6526 92.7916 59.8848 92.811C60.7194 92.8842 61.8683 92.4764 62.5012 93.0755C62.6754 93.2424 62.6418 93.9805 62.7139 93.9969C62.8559 94.0271 63.1797 93.4638 63.3001 93.4332C63.9104 93.28 64.2307 94.3235 64.6324 94.5727C65.9406 95.386 67.4841 95.9275 68.7612 96.7891C69.5706 97.3283 71.0024 98.0481 71.5768 98.8972C71.7009 99.08 71.3741 99.6281 71.5144 99.7081C71.6701 99.7966 71.9437 99.4598 72.0312 99.4711C72.6411 99.5413 73.9213 99.8305 74.2037 100.493C74.2574 100.619 74.1134 101.083 74.1681 101.113C74.1953 101.129 74.3989 100.876 74.4983 100.898C75.3764 101.092 75.8373 101.598 76.524 102.141C77.8452 103.168 79.6864 103.728 81.0168 104.925C81.3069 105.185 81.2036 105.978 81.2526 105.997C81.3583 106.045 81.6364 105.648 81.8863 105.671C82.7118 105.759 83.3764 106.786 84.096 107.003C84.4508 107.112 85.0987 106.936 85.4405 107.057C85.7141 107.154 86.184 107.739 86.38 107.63C86.4986 107.564 86.7049 107.227 86.8006 107.243ZM74.7624 109.737C75.2414 108.879 74.3751 109.419 74.3324 109.964C74.3234 110.085 74.6384 109.959 74.7624 109.737ZM57.8035 92.2714C57.5783 91.9778 57.3532 91.6841 57.128 91.3904C57.1629 91.5556 57.1979 91.7209 57.2329 91.8862C57.398 92.0411 57.563 92.1959 57.7281 92.3506C57.7532 92.3242 57.7783 92.2978 57.8035 92.2714Z" fill="#4B4B66"/>
<path d="M56.824 89.441C58.084 89.0839 60.0765 89.0256 61.458 89.1195C61.8994 89.1469 61.7372 89.5714 62.0499 89.6071C62.6513 89.6777 63.2697 89.3912 63.8211 89.4964C64.0173 89.5313 63.8754 90.1886 64.0798 90.2107C65.1859 90.3296 66.3363 89.9938 67.4164 89.962C73.0828 89.7526 78.6232 89.0326 84.2843 88.2213C86.1537 87.9531 88.5196 88.0561 90.3667 87.4082C90.5815 87.3323 90.335 86.8195 90.3675 86.766C90.8809 85.9437 90.8945 87.0817 91.3578 87.1339C93.2048 87.336 95.1236 86.9596 96.7233 86.3689C97.4045 86.1156 96.4513 85.2105 97.2976 85.6455C97.3563 85.6745 97.3119 86.2878 97.519 86.3036C97.9905 86.3379 98.7902 86.0398 99.1369 86.004C99.8069 85.9378 99.913 85.9059 100.528 85.7621C101.37 85.5703 102.441 85.6028 103.306 85.2438C103.49 85.1655 103.087 84.6477 103.366 84.4702C103.646 84.2931 104.464 84.1329 104.771 84.1982C105.079 84.264 105.084 84.7517 105.16 84.8438C105.791 85.624 106.398 84.1491 106.508 84.0866C108.555 82.9788 110.594 83.1477 112.637 82.531C114.185 82.0615 115.727 81.3255 117.2 80.8725C118.936 80.3413 120.491 80.1454 122.132 79.4819C122.303 79.4128 121.855 78.8242 122.064 78.7388C124.255 77.8388 126.483 77.0304 128.856 76.4954C129.095 76.4421 129.066 77.1353 129.32 77.1154C130.845 77.0019 133.542 77.0458 133.045 74.2457C133.936 73.9024 135.025 73.4261 136.051 73.4534C136.711 73.4708 136.591 74.3304 137.034 73.7276C137.133 73.5925 136.655 73.1895 136.824 73.0264C137.5 72.3612 138.555 71.9026 139.128 71.1175C139.245 70.9559 138.893 70.5543 138.88 70.4461C138.776 69.5703 140.116 70.1598 140.318 70.1179C141.757 69.8655 142.212 69.1041 143.054 68.2852C143.241 68.1013 142.517 67.8208 142.673 67.6304C143.455 66.6791 144.279 65.7328 145.094 64.9484C145.284 64.7609 145.695 65.2675 145.814 65.1889C146.341 64.8123 145.362 64.1987 145.777 63.8648C145.863 63.7905 146.322 64.0419 146.382 64.0462C147.337 64.0832 146.236 63.375 146.229 63.3053C146.144 62.3225 147.553 61.9629 147.399 60.9206C147.376 60.8066 146.717 61.048 146.691 60.7422C146.664 60.4702 146.63 60.1953 146.587 59.9141C146.251 57.624 145.99 55.4827 145.719 53.2007C145.671 52.8004 146.229 52.9097 146.279 52.8676C147.048 52.1657 145.75 52.3311 145.663 52.2313C144.999 51.4138 145.601 50.1079 143.926 50.11C142.584 45.989 139.386 43.1471 137.166 39.2082C137.137 39.1589 137.639 38.7684 137.577 38.6713C136.825 37.4996 136.346 38.3924 134.918 38.7362C134.564 38.8273 134.968 37.2907 134.982 37.1673C135.055 36.7251 135.823 36.1439 135.812 36.0382C135.686 35.178 133.845 37.6605 133.207 37.171C133.19 37.1513 133.621 36.7642 133.6 36.6774C133.535 36.4046 133.237 36.4635 133.188 36.1831C133.082 35.5414 133.814 34.2133 132.698 34.4984C132.556 34.5386 131.669 36.0532 131.123 35.5796C130.908 35.3867 129.817 34.7097 129.565 34.4231C129.316 34.1343 129.826 33.7864 129.818 33.7521C129.373 32.6001 129.855 32.5341 129.993 31.3263C130.119 30.1193 128.905 32.4562 128.585 32.609C128.267 32.7609 127.949 31.8695 127.894 31.5945C127.841 31.3197 128.212 31.1155 128.131 30.9312C127.572 29.7181 127.093 31.8498 126.591 32.0509C125.42 32.5423 125.738 30.5137 125.157 30.011C124.999 29.8752 124.949 30.3459 124.771 30.3041C124.069 30.1358 123.94 29.3998 122.966 29.5645C122.804 29.5896 121.731 30.3894 121.69 29.4323C121.684 29.2943 122.039 28.9193 121.799 28.6957C121.446 28.3618 120.702 27.9313 120.199 27.9012C119.821 27.8762 119.899 28.7725 119.576 28.3727C119.431 28.1946 119.953 27.9002 119.665 27.6011C119.379 27.3019 118.466 26.9671 118.112 26.8516C117.759 26.7358 117.735 27.376 117.692 27.4036C117.441 27.5584 116.678 27.5884 116.619 27.567C113.657 26.5669 111.162 24.7262 108.111 24.2525C107.871 24.2148 107.86 24.8749 107.822 24.8755C106.96 24.9233 108.025 23.4446 107.607 22.7453C107.359 24.0237 107.089 23.7085 106.487 23.7021C106.196 23.7002 106.221 24.2258 106.184 24.2694C105.594 24.9085 105.553 23.8817 105.528 23.6674C105.435 22.8795 104.933 23.6606 104.865 23.1338C104.795 22.6102 105.394 22.0022 104.837 21.8787C104.575 22.2945 104.701 23.5739 104.239 23.6667C102.538 24.0211 99.8289 22.4721 98.5625 22.1323C97.3228 21.7923 96.8988 21.8045 96.1906 21.5063C94.9077 20.9715 95.2413 21.9463 94.346 22.2128C93.4491 22.4817 94.2132 20.3597 94.171 19.869C94.1294 19.3789 93.9202 19.842 93.8143 19.5593C93.7084 19.2767 94.0808 19.0084 93.748 18.8549C93.4129 18.7005 92.3309 19.3903 92.1352 19.8656C91.7177 20.8711 91.9735 22.0307 91.1267 21.5096C91.0779 21.479 91.3333 20.927 91.1419 20.839C89.6167 20.1584 87.9565 19.9062 86.4014 19.3154C86.1876 19.2333 86.4637 18.6131 86.3398 18.558C85.0469 17.9843 85.3954 19.129 84.5267 20.2524C84.8751 18.6641 84.5813 17.6319 83.5582 17.5112C82.944 17.4388 82.9749 18.1531 82.5277 18.607C82.3938 18.744 82.0104 18.217 81.8984 18.5398C81.5315 19.595 81.8153 20.8443 80.8234 20.2604C80.78 20.2331 80.983 19.6553 80.8284 19.6042C79.8255 19.2715 79.5951 20.3912 78.4799 20.4312C77.606 20.4627 76.1228 19.6487 75.1451 19.4657C75.2995 17.6527 74.3289 18.001 73.8613 19.2271C73.2186 19.1322 72.518 19.1588 71.9063 18.9486C71.6957 18.8768 71.8676 18.3594 71.844 18.301C71.481 17.3852 71.1299 18.5876 70.989 18.6275C69.4635 19.0079 68.2858 18.0254 66.7951 18.8684C66.7423 18.8988 66.6087 20.1578 66.2609 19.2208C66.2383 19.1563 66.7372 18.6004 66.0607 18.5295C65.3852 18.4584 64.1316 17.7375 63.1836 18.2969C62.9575 18.4314 62.35 19.441 61.9032 18.6286C61.8437 18.5183 61.9206 18.1576 61.8355 17.9538C61.5598 17.3045 61.3728 18.5777 61.056 17.4856C60.7396 16.3936 60.0401 15.5663 59.0773 16.3006C59.0465 16.3219 58.8071 17.3307 58.5107 17.3108C58.0344 17.278 57.3771 17.0601 56.8711 17.0627C56.6278 17.0643 56.7787 17.6941 56.7364 17.7053C55.1054 18.0461 53.9626 17.4845 52.2633 17.2507C51.9589 17.2064 51.0528 18.0706 50.4233 17.4004C49.7364 16.6672 50.3911 13.5709 48.8407 14.3292C48.2147 14.6334 47.5088 18.5614 46.3751 16.5585C44.1371 17.1138 42.2189 16.1369 39.9973 16.9453C39.8987 16.9812 39.6308 18.0859 39.3998 18.0809C39.0563 18.0714 38.8473 17.5695 38.6034 17.5467C37.5718 17.4392 36.7384 17.9174 35.6899 17.9047C35.307 17.9004 35.4112 17.3659 34.958 17.361C34.5067 17.3568 34.2486 18.0677 33.6369 17.7671C33.1687 17.5382 32.6719 16.1441 32.0392 16.0177C32.1036 17.4185 31.6599 17.4169 30.934 17.8358C30.7949 17.9169 30.9815 18.3936 30.9173 18.4571C30.658 18.7264 30.3781 18.34 30.1405 18.6307C30.0826 18.7005 30.1126 19.1784 30.0675 19.2625C29.6835 19.9955 28.9196 18.9705 28.7896 18.7921C28.2889 18.1144 28.0598 18.756 27.6709 18.5041C27.2744 18.253 27.8086 17.8609 27.3579 17.7245C26.3907 17.4456 25.4413 17.5996 24.4351 17.6634C24.0601 17.6897 24.3704 18.3045 24.3179 18.3231C23.5613 18.5507 22.7872 17.9383 22.5307 19.2405C21.7563 16.0068 22.0582 19.6038 20.9524 19.0492C20.8667 19.004 20.6076 17.4653 20.9031 17.2069C21.1936 16.9491 21.7772 17.3821 22.2076 16.9846C22.2917 16.8927 22.7264 15.3884 22.8019 15.293C23.3696 14.5488 23.6774 16.8574 23.7203 16.9818C24.2214 18.3216 24.8901 16.688 25.0708 16.5643C25.8566 15.9998 26.6324 16.2665 27.3718 15.8541C27.8584 15.587 27.7976 14.0638 28.2102 14.0802C29.4391 14.1456 30.0169 16.2363 31.1213 14.3168C31.3628 13.9075 30.9843 12.2623 32.0376 13.508C32.1122 13.586 32.8304 14.7419 33.1756 13.9626C33.2186 13.8643 33.1883 13.3799 33.2503 13.3354C33.6669 13.0467 33.9803 13.416 34.4519 13.2042C34.9239 12.9924 35.4993 12.685 36.0783 12.8202C36.4426 12.9001 36.8758 13.7841 37.0443 13.9976C37.507 14.6135 37.9284 13.5471 38.2377 14.3062C38.5483 15.0691 38.0634 16.2707 38.8075 16.7394C38.7786 15.4785 38.7835 14.1829 38.7716 12.9141C40.4008 12.8871 41.9925 13.236 43.5824 13.1314C43.7817 13.1172 43.5567 12.4458 43.7705 12.4131C44.6693 12.2784 45.5068 12.7396 46.4382 12.5259C47.1428 12.3583 47.9158 11.6252 48.6739 11.432C49.1603 12.8668 50.2849 12.3612 51.1239 12.4857C51.4159 12.5286 51.4048 12.9141 51.6069 13.0382C52.3634 13.4976 52.0021 12.2253 52.2082 12.0233C53.0987 11.1621 53.1862 14.0474 54.2444 13.9753C54.2994 13.9723 54.9923 12.4347 55.0896 12.3393C55.7007 11.7164 55.1887 12.875 55.5694 12.99C56.2602 13.2006 56.7653 13.5712 57.5622 13.1284C57.7955 12.9972 58.3684 12.0447 58.815 12.7927C58.8737 12.8907 58.8334 13.3986 58.8812 13.4291C59.7465 13.9382 59.7964 12.3418 60.3113 11.8098C60.8271 11.2781 61.5893 12.3981 61.7408 12.7197C62.1386 13.5516 61.4132 13.0636 61.389 13.144C61.1037 14.0983 61.6756 13.9453 62.1098 14.0372C62.1344 15.6047 62.744 15.5264 62.5601 14.1265C62.5388 13.9735 62.1954 14.1109 62.1098 14.0372C62.5317 12.51 63.2113 12.3308 63.8916 13.7885C64.2114 14.4721 63.864 15.2455 64.9063 14.9927C65.3804 14.8794 65.2363 13.795 65.6641 13.5161C66.6436 12.8799 67.8512 13.9373 68.8508 13.8265C69.2076 13.786 68.8908 13.1796 69.1361 13.1317C69.7884 13.0029 70.3347 13.4748 70.9968 13.284C71.057 13.266 70.9468 12.6409 71.1499 12.6442C72.6893 12.6584 74.0219 13.1397 75.6225 13.2667C76.3941 13.327 77.8074 13.096 78.608 13.2336C79.9969 13.4659 81.6273 14.5235 82.8315 14.4294C83.6197 14.371 83.5152 13.739 83.8934 13.3557C84.6266 12.6125 85.6044 14.1963 85.7284 14.4393C85.732 14.4471 85.0487 14.5151 85.368 14.8713C85.4984 15.552 85.7203 14.4413 85.7284 14.4393C85.8122 14.5954 87.1262 14.8945 87.4051 14.8114C87.5569 14.7653 87.5492 14.1741 87.6272 14.1611C89.4792 13.8653 91.3009 13.9675 93.0681 14.5161C93.0981 14.5327 92.9507 15.1729 93.0223 15.2038C94.0198 15.6527 94.8199 14.971 95.7666 14.6477C96.713 14.3251 97.3786 14.6055 97.6868 15.8043C98.3623 15.7823 99.1972 16.4458 99.6726 16.8463C100.151 17.2471 100.474 16.0118 100.526 15.9964C102.168 15.5025 102.879 16.3988 104.37 16.8502C105.076 17.0656 106.556 17.2257 107.381 17.2894C108.032 17.3359 108.331 17.7212 108.949 17.6852C109.033 17.6807 109.099 17.111 109.128 17.096C109.941 16.6076 109.278 17.8687 109.345 18.143C109.587 19.141 109.747 19.6801 110.659 19.4943C110.869 19.452 111.947 17.68 112.336 17.6713C112.83 17.6606 112.458 18.2981 112.977 18.2707C113.021 18.2691 113.139 17.8427 113.424 17.9486C114.751 18.4348 116.124 19.1444 117.502 19.5719C117.69 19.6321 117.679 18.8865 117.956 18.9633C119.288 19.3358 120.699 19.8854 121.812 20.679C122.085 20.8763 121.714 21.2572 121.726 21.4187C121.799 22.3959 122.841 21.4381 122.947 21.4554C125.47 21.8362 126.701 23.6703 129.174 24.3153C129.308 24.3458 130.915 23.637 130.775 24.9053C130.769 24.9911 130.596 26.2698 131.358 25.7529C131.406 25.721 131.453 25.0349 131.87 25.3429C132.284 25.6492 133.214 25.7112 133.46 26.6594C133.537 26.9577 133.352 28.2531 134.431 27.8058C134.496 27.7657 136.578 26.5346 136.059 27.9915C135.972 28.2309 135.033 29.5011 136.145 29.2834C136.361 29.2416 136.334 28.7921 136.792 28.8438C137.501 28.9258 137.909 29.745 138.95 29.6535C139.132 29.635 140.267 29.1529 140.133 30.0897C140.111 30.2356 139.672 30.5611 139.828 30.7618C140.562 31.7146 141.723 32.2477 142.344 33.323C142.562 33.7023 141.822 34.1786 141.975 34.6394C142.135 35.1047 142.592 35.8661 143.185 35.9198C143.782 35.977 144.413 34.6669 144.978 35.1032C147.438 37.0203 148.734 40.0151 150.204 42.7147C150.422 43.1188 150.65 42.5405 151 43.129C152.332 45.2622 154.475 49.2223 154.061 51.6445C153.746 53.5449 152.544 51.6339 152.573 52.9752C152.584 53.6194 154.267 53.8493 154.353 53.9973C155.181 55.3219 154.679 56.4803 155.082 57.7775C155.165 58.0489 155.763 57.6877 155.826 57.923C155.908 58.223 155.934 58.5382 155.939 58.8554C155.969 59.5824 155.902 60.3 155.929 60.9683C155.945 61.4453 156.437 61.3749 156.376 61.8246C156.227 62.89 155.875 63.8249 155.198 64.6907C155.137 64.7639 154.682 64.0507 154.488 64.7536C154.16 65.9195 153.265 67.0196 153.109 68.3525C153.063 68.7458 154.041 69.3131 152.949 69.6585C152.717 69.7294 151.692 68.848 152.205 70.2113C152.314 70.42 152.686 72.639 151.392 72.6115C151.052 72.6118 149.909 72.2681 149.788 72.6666C149.773 72.7256 150.369 72.9585 150.193 73.2468C149.574 74.2437 148.575 75.1346 147.873 76.0057C147.676 76.2476 148.434 76.4095 148.123 76.7586C147.269 77.7191 145.848 78.6163 144.803 79.1138C144.403 79.3068 144.354 78.7106 144.295 78.6835C143.361 78.2251 143.814 79.4045 143.71 79.5619C143.055 80.5206 142.074 80.4539 141.364 81.0627C141.163 81.2308 141.623 81.6397 141.606 81.7112C141.403 82.4279 141.209 81.316 140.858 81.389C139.88 81.5849 138.942 82.1617 138.182 82.6502C137.894 82.8352 138.553 83.2566 138.288 83.4165C136.717 84.3797 134.947 85.1579 133.205 85.5285C132.872 85.5988 132.849 85.0347 132.737 84.9536C131.966 84.3813 131.787 85.7054 131.678 85.8705C131.201 86.6169 130.779 86.2911 130.228 86.6142C127.513 88.2137 123.809 89.2378 121.052 89.9571C117.399 90.9196 114.518 91.2654 111.165 92.3463C110.951 92.4142 111.357 93.0247 111.175 93.0918C108.803 93.9299 106.369 94.2886 103.995 95.0891C103.799 95.1536 104.246 95.7236 103.938 95.8486C103.306 96.1096 102.466 96.2781 101.756 96.232C101.41 96.2107 101.709 95.5551 101.364 95.5448C100.563 95.5184 99.7369 95.6651 98.9832 95.9488C98.6625 96.071 99.3153 96.6139 98.886 96.7213C95.9776 97.4626 93.1132 98.2036 89.9597 97.9559C89.7434 97.9388 89.2899 96.6288 88.9122 96.9743C88.9555 97.3547 89.0463 97.7941 89.1131 98.1966C84.8789 99.2775 80.5797 99.5903 76.2491 100.255C76.0695 100.283 76.5015 100.948 76.1544 101.005C74.124 101.34 72.2372 101.853 69.9702 101.475C69.7528 101.438 69.6576 100.156 69.0871 100.441C68.98 100.493 68.1361 100.796 67.9307 101.108C67.9033 101.155 68.1685 101.719 67.8613 101.784C66.1151 102.14 64.2637 102.271 62.577 102.137C62.2921 102.116 62.5082 101.443 62.2913 101.425C61.5077 101.363 60.7949 101.496 60.1264 101.592C59.2833 101.71 58.7346 101.758 57.9328 101.568C56.9494 101.299 57.2143 100.156 56.601 99.1403C56.4668 99.0029 55.9144 99.0448 55.8477 98.4177C55.6037 96.8503 55.6103 95.1016 55.323 93.4341C55.3077 93.3443 55.2617 93.3058 55.2123 93.2832C55.2069 93.2555 54.9914 93.2681 54.9527 93.2436C54.8922 93.2217 54.8935 93.1764 54.8829 93.0844C54.8804 92.9914 54.8255 92.8565 54.891 92.6276C55.0029 92.5556 55.3568 92.2196 55.4954 91.9021C55.5718 91.6851 55.3097 91.0711 55.4887 90.7833C55.5351 90.7112 55.5912 90.6884 55.6562 90.6889C55.6973 90.6924 55.7437 90.7197 55.7949 90.7449C55.8972 90.7954 56.0167 90.8378 56.1438 90.6656C56.4079 90.316 56.1661 89.6117 56.824 89.441ZM101.805 18.6548C102.166 19.3574 102.709 17.1797 102.063 17.5912C102.031 17.6137 101.786 18.62 101.805 18.6548ZM42.0429 14.9307C42.7084 15.8975 43.0999 14.4295 42.623 13.6806C42.1455 12.9328 41.8397 14.6378 42.0429 14.9307ZM35.3771 15.9492C36.1885 16.6875 36.1491 13.5043 35.3499 14.1904C35.3035 14.2292 35.3298 15.9064 35.3771 15.9492ZM58.7222 98.561C58.709 98.5328 58.3253 98.5532 58.323 98.5832C58.212 99.316 58.9783 99.2748 58.7222 98.561ZM28.8345 17.1476C29.0862 17.5607 29.7071 17.0191 29.3866 16.5053C29.126 16.0919 28.5176 16.6338 28.8345 17.1476ZM125.626 29.0213C125.618 29.0546 125.857 29.2072 125.936 29.0359C126.192 28.4832 125.761 28.4603 125.626 29.0213ZM17.5691 18.2024C19.2763 18.1317 20.4995 20.6513 18.7232 20.5402C18.4199 20.5189 19.2828 19.6373 18.8707 19.4433C18.6796 19.3552 18.5285 19.394 18.3991 19.4888C18.2888 19.5815 18.0381 19.7482 17.8975 19.8889C17.7403 20.0315 17.6029 20.1578 17.4737 20.1966C17.4382 20.2242 16.9618 20.218 16.9508 19.9971C16.955 19.9154 16.8018 19.4991 17.2055 19.0389C17.3099 18.6144 17.5197 18.1998 17.5716 18.1984C17.5708 18.1997 17.5699 18.2011 17.5691 18.2024ZM101.525 21.3497C101.528 21.3807 101.907 21.4908 101.923 21.4642C102.283 20.8131 101.515 20.5898 101.525 21.3497ZM138.328 39.4743C138.301 39.5333 138.885 40.2081 138.945 40.1898C140.12 39.7222 138.902 38.3128 138.328 39.4743ZM75.1332 19.4162C74.6586 20.1 74.1448 20.1488 73.8632 19.2281C74.2865 19.3046 74.7137 19.3415 75.1332 19.4162Z" fill="#4B4B66"/>
</svg>
