<svg version="1.2" xmlns="http://www.w3.org/2000/svg" viewBox="0 0 512 512" width="512" height="512"><style>.a{opacity:1;fill:#f5f3ed}</style><path fill-rule="evenodd" class="a" d="m262 0.8c3.6 0.1 10.1 0.7 14.5 1.3 4.4 0.5 12.1 2.1 17 3.3 4.9 1.3 13.1 4 18 6.1 4.9 2 11.5 5.1 14.5 6.8 3 1.7 9.5 5.8 14.5 9.1 4.9 3.4 13.2 10.4 18.5 15.6 5.3 5.2 11.9 12.7 14.8 16.5 2.8 3.8 7.1 10.4 9.6 14.5 2.4 4.1 6.1 11.3 8.1 16 2 4.7 4.7 12.3 6.1 17 1.3 4.7 3.1 12.8 4 18 0.9 5.4 1.5 15.6 1.5 23.5 0 8.1-0.7 17.8-1.6 23-0.9 4.9-2.4 12.2-3.5 16-1.1 3.8-2.9 9.5-4.1 12.5-1.1 3-4 9.3-6.3 14-2.3 4.7-7.1 12.8-10.6 18-3.6 5.2-10.8 13.7-16 19-5.2 5.3-12.3 11.7-15.8 14.3-3.4 2.6-5.9 4.9-5.4 5.1 0.4 0.2 4.8 1.9 9.7 3.8 4.9 1.9 14.9 6.5 22 10.1 7.1 3.6 18.4 10.2 25 14.6 6.6 4.3 15.8 11 20.5 14.8 4.7 3.7 13.5 11.7 19.5 17.8 6.1 6 14.1 14.8 17.8 19.5 3.8 4.7 10.3 13.7 14.6 20 4.2 6.3 10.7 17.4 14.3 24.5 3.6 7.1 8.4 17.5 10.6 23 2.2 5.5 5.1 13.8 6.5 18.5 1.4 4.7 3.5 12.3 4.6 17 1 4.7 2.7 13.2 3.6 19 0.9 5.8 2 16.9 3 39h-39.5v-8.8c0-4.8-0.7-13.4-1.4-19.2-0.8-5.8-2.4-14.8-3.6-20-1.1-5.2-3.9-14.9-6.1-21.5-2.2-6.6-7.1-18.3-10.9-26-3.8-7.7-9.5-17.9-12.7-22.7-3.2-4.7-8.7-12.4-12.3-16.9-3.6-4.5-11.2-12.9-17-18.7-5.8-5.7-15.4-14.2-21.5-18.7-6.1-4.5-14.8-10.5-19.5-13.3-4.7-2.8-13.4-7.4-19.5-10.3-6.1-2.8-16.9-7.1-24-9.4-7.1-2.4-17.7-5.2-23.5-6.4-5.8-1.1-14.3-2.5-19-3.1-4.7-0.5-16.1-1-25.5-1-9.3 0-21.7 0.7-27.5 1.4-5.8 0.8-14.8 2.4-20 3.6-5.2 1.1-14.9 3.9-21.5 6.1-6.6 2.2-17.8 6.8-25 10.3-7.2 3.5-17.7 9.5-23.5 13.3-5.8 3.8-14.1 9.9-18.4 13.4-4.4 3.5-11.8 10.3-16.5 15-4.7 4.7-11.5 12.1-15 16.5-3.5 4.3-9.6 12.6-13.4 18.4-3.8 5.8-9.8 16.4-13.3 23.5-3.5 7.1-8.3 19.1-10.8 26.5-2.4 7.4-5.3 18.2-6.5 24-1.1 5.8-2.5 14.3-3.1 19-0.5 4.7-1 12.2-1 25h-39.5l0.3-9.7c0.2-5.4 1-15.2 1.8-21.8 0.8-6.6 2.4-16.5 3.6-22 1.1-5.5 3.3-14.4 4.9-19.8 1.6-5.3 4.7-14.3 7-19.9 2.2-5.7 6.5-15 9.3-20.8 2.9-5.8 7.8-14.6 10.8-19.5 3.1-4.9 8.5-12.9 11.9-17.6 3.5-4.8 10.2-13.1 14.9-18.4 4.7-5.4 13-13.8 18.5-18.8 5.5-5 14.3-12.2 19.5-16.1 5.2-3.9 13.5-9.7 18.5-12.7 5-3.1 14.2-8.2 20.5-11.4 6.3-3.2 15.6-7.3 20.5-9.2 4.9-1.9 9.3-3.7 9.7-3.9 0.5-0.2-2.2-2.7-6-5.6-3.7-2.8-10.5-9-15.2-13.8-4.7-4.7-11.5-12.8-15.2-18-3.7-5.2-9-14-11.7-19.5-2.7-5.5-6.3-14.1-7.9-19-1.6-4.9-3.8-12.8-4.7-17.5-1-4.7-2-13.1-2.4-18.8-0.3-5.7-0.3-15.1 0.1-21 0.4-5.9 1.4-14.3 2.3-18.7 1-4.4 2.9-11.8 4.5-16.5 1.5-4.7 4.6-12.3 6.8-17 2.2-4.7 6.7-12.5 10-17.5 3.2-5 8.8-12.4 12.4-16.5 3.5-4.1 10.2-10.7 14.8-14.6 4.7-3.9 12.1-9.5 16.5-12.4 4.4-2.8 11.6-6.9 16-9 4.4-2.1 12.1-5.2 17-6.9 4.9-1.6 12.6-3.7 17-4.6 4.4-0.9 12.7-2 18.5-2.3 5.8-0.4 13.4-0.6 17-0.4zm-34.5 43.7c-4.9 1.4-12.6 4.3-17 6.3-4.4 2.1-10.9 5.8-14.5 8.2-3.6 2.4-10.2 8-14.8 12.4-4.6 4.5-10.5 11.3-13.2 15.1-2.6 3.8-6.6 10.8-8.9 15.5-2.2 4.7-5.2 12.5-6.6 17.5-1.4 4.9-2.9 13.3-3.4 18.5-0.4 5.2-0.4 14 0 19.5 0.5 5.5 2 14.1 3.4 19 1.4 4.9 4.4 12.8 6.6 17.5 2.3 4.7 6.3 11.7 8.9 15.5 2.7 3.8 8.6 10.6 13.2 15.1 4.6 4.4 11 9.9 14.3 12.1 3.3 2.2 9.2 5.6 13 7.5 3.8 2 10.6 4.7 15 6.1 4.4 1.4 10.9 3 14.5 3.7 3.6 0.6 11.9 1.1 18.5 1.1 7.1 0 15.2-0.7 20-1.6 4.4-0.9 10.7-2.6 14-3.7 3.3-1.2 9.1-3.7 13-5.6 3.9-1.9 9.7-5.3 13-7.5 3.3-2.2 9.7-7.7 14.3-12.1 4.6-4.5 10.5-11.3 13.2-15.1 2.6-3.8 6.6-10.8 8.9-15.5 2.2-4.7 5.2-12.6 6.6-17.5 1.4-4.9 2.9-13.3 3.3-18.5 0.4-5.2 0.4-14 0-19.5-0.4-5.6-1.8-14-3.3-19-1.4-5-4.4-12.8-6.6-17.5-2.3-4.7-6.3-11.7-8.9-15.5-2.7-3.8-8.6-10.6-13.2-15.1-4.6-4.4-11-9.9-14.3-12.1-3.3-2.2-9.1-5.6-13-7.5-3.9-1.9-9.7-4.4-13-5.6-3.3-1.1-9.6-2.7-14-3.6-4.4-0.8-10.9-1.6-14.5-1.8-3.6-0.2-10.8 0-16 0.4-5.2 0.4-13.6 1.9-18.5 3.3z"/></svg>