<svg width="140" height="91" viewBox="0 0 140 91" fill="none" xmlns="http://www.w3.org/2000/svg"> <path d="M39.8982 78.0089C41.1582 77.6519 43.1508 77.5935 44.5323 77.6874C44.9736 77.7148 44.8115 78.1393 45.1241 78.175C45.7255 78.2456 46.3439 77.9591 46.8953 78.0644C47.0915 78.0992 46.9497 78.7565 47.154 78.7787C48.2602 78.8975 49.4105 78.5617 50.4906 78.53C56.157 78.3206 61.6974 77.6005 67.3586 76.7892C69.2279 76.521 71.5938 76.624 73.4409 75.9762C73.6557 75.9002 73.4092 75.3874 73.4417 75.334C73.9552 74.5116 73.9688 75.6496 74.432 75.7019C76.279 75.9039 78.1978 75.5275 79.7975 74.9369C80.4787 74.6835 79.5255 73.7784 80.3718 74.2134C80.4305 74.2425 80.3861 74.8558 80.5932 74.8715C81.0647 74.9058 81.8644 74.6077 82.2111 74.5719C82.8811 74.5057 82.9872 74.4738 83.6024 74.33C84.4438 74.1383 85.5157 74.1707 86.3799 73.8117C86.5639 73.7334 86.1612 73.2156 86.4404 73.0381C86.72 72.861 87.5381 72.7008 87.8456 72.7662C88.1533 72.8319 88.1584 73.3196 88.2342 73.4117C88.8657 74.1919 89.4725 72.717 89.5821 72.6545C91.6291 71.5467 93.6684 71.7156 95.7111 71.0989C97.2593 70.6295 98.8014 69.8934 100.275 69.4404C102.01 68.9092 103.565 68.7134 105.206 68.0498C105.378 67.9808 104.93 67.3921 105.138 67.3067C107.33 66.4067 109.557 65.5983 111.931 65.0633C112.169 65.01 112.14 65.7032 112.394 65.6833C113.919 65.5698 116.616 65.6138 116.119 62.8136C117.011 62.4704 118.099 61.9941 119.126 62.0213C119.785 62.0387 119.666 62.8983 120.109 62.2956C120.207 62.1605 119.729 61.7575 119.898 61.5944C120.574 60.9291 121.629 60.4705 122.202 59.6854C122.319 59.5239 121.968 59.1223 121.955 59.014C121.85 58.1382 123.19 58.7277 123.392 58.6858C124.831 58.4335 125.286 57.672 126.128 56.8532C126.315 56.6692 125.591 56.3887 125.747 56.1984C126.529 55.247 127.354 54.3007 128.168 53.5163C128.358 53.3288 128.769 53.8354 128.889 53.7568C129.415 53.3803 128.436 52.7666 128.851 52.4327C128.937 52.3584 129.396 52.6098 129.456 52.6141C130.411 52.6511 129.31 51.9429 129.304 51.8733C129.218 50.8904 130.627 50.5308 130.473 49.4886C130.45 49.3745 129.791 49.6159 129.765 49.3101C129.738 49.0382 129.704 48.7632 129.661 48.482C129.325 46.192 129.065 44.0506 128.794 41.7686C128.745 41.3684 129.303 41.4777 129.353 41.4355C130.122 40.7336 128.824 40.8991 128.737 40.7993C128.073 39.9818 128.676 38.6759 127 38.678C125.658 34.557 122.46 31.715 120.241 27.7761C120.211 27.7268 120.713 27.3363 120.652 27.2392C119.899 26.0675 119.421 26.9604 117.992 27.3041C117.638 27.3952 118.042 25.8586 118.056 25.7353C118.129 25.293 118.897 24.7119 118.886 24.6061C118.761 23.7459 116.92 26.2285 116.281 25.7389C116.264 25.7192 116.695 25.3321 116.674 25.2453C116.61 24.9726 116.312 25.0314 116.262 24.751C116.156 24.1094 116.888 22.7813 115.773 23.0663C115.631 23.1066 114.743 24.6211 114.197 24.1476C113.982 23.9546 112.891 23.2777 112.639 22.991C112.39 22.7022 112.9 22.3543 112.892 22.3201C112.447 21.168 112.929 21.1021 113.067 19.8942C113.193 18.6873 111.979 21.0242 111.659 21.1769C111.341 21.3289 111.023 20.4374 110.968 20.1624C110.915 19.8876 111.287 19.6834 111.205 19.4991C110.646 18.2861 110.168 20.4177 109.665 20.6189C108.494 21.1103 108.812 19.0816 108.231 18.5789C108.074 18.4432 108.024 18.9139 107.845 18.872C107.143 18.7038 107.015 17.9678 106.04 18.1325C105.878 18.1576 104.805 18.9574 104.764 18.0003C104.758 17.8623 105.113 17.4872 104.874 17.2637C104.52 16.9297 103.777 16.4993 103.273 16.4691C102.895 16.4442 102.973 17.3404 102.65 16.9406C102.506 16.7625 103.027 16.4681 102.739 16.1691C102.453 15.8698 101.54 15.535 101.186 15.4196C100.833 15.3037 100.809 15.9439 100.766 15.9715C100.515 16.1264 99.7518 16.1564 99.6932 16.1349C96.7309 15.1348 94.2362 13.2941 91.1847 12.8204C90.9456 12.7827 90.9344 13.4428 90.8962 13.4434C90.034 13.4913 91.0992 12.0126 90.6816 11.3132C90.4332 12.5916 90.1628 12.2764 89.5607 12.27C89.2704 12.2682 89.2957 12.7938 89.2581 12.8373C88.6686 13.4764 88.6272 12.4496 88.6018 12.2353C88.5096 11.4474 88.0069 12.2285 87.9397 11.7017C87.8697 11.1781 88.468 10.5702 87.9114 10.4466C87.6492 10.8624 87.7753 12.1419 87.3136 12.2347C85.6117 12.589 82.9031 11.04 81.6367 10.7002C80.397 10.3602 79.973 10.3724 79.2648 10.0742C77.9819 9.53946 78.3155 10.5142 77.4203 10.7807C76.5233 11.0496 77.2874 8.9276 77.2452 8.43694C77.2036 7.94686 76.9944 8.40998 76.8885 8.12725C76.7826 7.84461 77.155 7.57631 76.8223 7.42282C76.4871 7.26844 75.4051 7.95827 75.2094 8.43351C74.7919 9.43904 75.0478 10.5986 74.2009 10.0775C74.1521 10.0469 74.4075 9.49496 74.2161 9.40689C72.6909 8.72629 71.0307 8.47418 69.4756 7.88337C69.2618 7.80123 69.5379 7.18106 69.414 7.12596C68.1211 6.55222 68.4696 7.69696 67.6009 8.8203C67.9493 7.23202 67.6556 6.19985 66.6324 6.07911C66.0182 6.00675 66.0492 6.72101 65.602 7.17498C65.4681 7.31189 65.0846 6.78489 64.9726 7.10771C64.6057 8.16294 64.8895 9.41223 63.8977 8.82837C63.8542 8.80104 64.0572 8.22327 63.9026 8.17211C62.8998 7.83943 62.6693 8.95909 61.5542 8.99917C60.6802 9.03061 59.1971 8.2166 58.2194 8.03365C58.3737 6.22063 57.4032 6.56894 56.9356 7.79503C56.2928 7.70013 55.5922 7.72672 54.9805 7.51651C54.7699 7.44474 54.9418 6.92737 54.9182 6.86895C54.5552 5.9531 54.2041 7.15551 54.0632 7.19548C52.5377 7.57588 51.36 6.59334 49.8693 7.4363C49.8165 7.46676 49.6829 8.72576 49.3352 7.78871C49.3125 7.7242 49.8114 7.1683 49.1349 7.09745C48.4594 7.02638 47.2058 6.30547 46.2579 6.86483C46.0318 6.99932 45.4242 8.00891 44.9775 7.1965C44.9179 7.08619 44.9948 6.72553 44.9097 6.52176C44.634 5.87242 44.447 7.14566 44.1303 6.05354C43.8138 4.96157 43.1143 4.13418 42.1515 4.8685C42.1208 4.88982 41.8813 5.89862 41.5849 5.87871C41.1086 5.84591 40.4513 5.628 39.9453 5.63065C39.702 5.63227 39.8529 6.26207 39.8106 6.27323C38.1796 6.61398 37.0368 6.05247 35.3375 5.8186C35.0331 5.77436 34.127 6.63857 33.4975 5.96837C32.8106 5.23515 33.4653 2.13879 31.9149 2.89713C31.2889 3.20132 30.583 7.12937 29.4493 5.12646C27.2113 5.68174 25.2931 4.7048 23.0715 5.51327C22.9729 5.54911 22.705 6.65384 22.474 6.64886C22.1305 6.63936 21.9215 6.13743 21.6777 6.11466C20.6461 6.00716 19.8126 6.48531 18.7641 6.47261C18.3812 6.46829 18.4854 5.93379 18.0322 5.92896C17.5809 5.92478 17.3229 6.63566 16.7111 6.33499C16.2429 6.10608 15.7461 4.71199 15.1134 4.58564C15.1778 5.9864 14.7341 5.98481 14.0083 6.40369C13.8691 6.48487 14.0557 6.96153 13.9916 7.02504C13.7322 7.29431 13.4523 6.90789 13.2147 7.1986C13.1569 7.26847 13.1868 7.74632 13.1417 7.8304C12.7578 8.56343 11.9938 7.53846 11.8638 7.36001C11.3632 6.68237 11.134 7.32389 10.7451 7.07205C10.3487 6.82097 10.8828 6.42879 10.4321 6.29248C9.46495 6.0135 8.51552 6.16749 7.5093 6.23132C7.13436 6.2576 7.44457 6.87246 7.39215 6.89101C6.63556 7.11863 5.86139 6.50628 5.60496 7.8084C4.83056 4.57473 5.13245 8.17175 4.02664 7.6171C3.94088 7.57197 3.68186 6.03326 3.97736 5.7748C4.26786 5.51706 4.85138 5.95006 5.28185 5.55256C5.36594 5.46068 5.80059 3.95635 5.87615 3.86098C6.44382 3.11676 6.75159 5.42532 6.79451 5.54969C7.29558 6.88955 7.9643 5.25594 8.14502 5.1322C8.93085 4.5677 9.7066 4.8344 10.4461 4.42199C10.9327 4.15498 10.8718 2.63174 11.2845 2.64815C12.5133 2.71357 13.0911 4.80423 14.1956 2.88473C14.437 2.47539 14.0585 0.830183 15.1118 2.07596C15.1864 2.15393 15.9047 3.30984 16.2498 2.53049C16.2928 2.43224 16.2625 1.94784 16.3245 1.90334C16.7411 1.61466 17.0545 1.9839 17.5261 1.77211C17.9981 1.56033 18.5736 1.25294 19.1525 1.38817C19.5168 1.46805 19.95 2.35205 20.1185 2.56551C20.5812 3.18143 21.0026 2.11506 21.3119 2.8741C21.6226 3.63703 21.1376 4.83863 21.8817 5.30736C21.8528 4.04648 21.8577 2.75079 21.8458 1.48201C23.475 1.45506 25.0667 1.8039 26.6566 1.69936C26.8559 1.6851 26.6309 1.01374 26.8447 0.981036C27.7435 0.846338 28.5811 1.3075 29.5124 1.09382C30.217 0.926221 30.99 0.193122 31.7481 -2.19683e-05C32.2346 1.43477 33.3591 0.929118 34.1981 1.05364C34.4901 1.09655 34.479 1.48207 34.6811 1.60616C35.4376 2.06556 35.0764 0.793247 35.2825 0.591192C36.1729 -0.269965 36.2605 2.61533 37.3186 2.54321C37.3736 2.54022 38.0665 1.00263 38.1638 0.907261C38.7749 0.284367 38.2629 1.4429 38.6436 1.5579C39.3344 1.76851 39.8396 2.13911 40.6364 1.69631C40.8697 1.5651 41.4427 0.612584 41.8893 1.36064C41.9479 1.45859 41.9076 1.96655 41.9554 1.99701C42.8207 2.50617 42.8706 0.909724 43.3855 0.377761C43.9014 -0.154006 44.6635 0.965998 44.815 1.28767C45.2128 2.11954 44.4874 1.63156 44.4633 1.71193C44.178 2.66627 44.7498 2.51319 45.184 2.60515C45.2087 4.17265 45.8182 4.09434 45.6344 2.69439C45.6131 2.54139 45.2697 2.67879 45.184 2.60515C45.6059 1.07797 46.2855 0.898687 46.9658 2.35645C47.2857 3.04005 46.9383 3.81339 47.9805 3.56068C48.4546 3.4473 48.3105 2.36293 48.7383 2.08403C49.7178 1.44787 50.9255 2.50526 51.925 2.39446C52.2818 2.35391 51.9651 1.74757 52.2104 1.69964C52.8626 1.57087 53.409 2.04276 54.071 1.85195C54.1312 1.83394 54.021 1.20879 54.2242 1.21217C55.7635 1.22637 57.0961 1.70762 58.6967 1.83462C59.4683 1.89493 60.8817 1.66393 61.6822 1.80148C63.0711 2.03379 64.7016 3.09141 65.9057 2.99734C66.6939 2.9389 66.5895 2.3069 66.9676 1.92362C67.7008 1.18044 68.6786 2.76421 68.8026 3.00727C68.8062 3.01502 68.1229 3.08306 68.4423 3.43923C68.5726 4.11988 68.7945 3.00923 68.8026 3.00727C68.8864 3.16331 70.2004 3.46241 70.4793 3.37936C70.6311 3.33324 70.6235 2.742 70.7014 2.72899C72.5534 2.43322 74.3751 2.53543 76.1423 3.08404C76.1723 3.10063 76.0249 3.74083 76.0965 3.77172C77.094 4.22061 77.8942 3.53898 78.8408 3.21565C79.7872 2.89307 80.4529 3.17341 80.761 4.37227C81.4365 4.3502 82.2714 5.01377 82.7468 5.41426C83.2251 5.81505 83.5479 4.57974 83.6007 4.56437C85.2419 4.07047 85.9534 4.96672 87.4445 5.41817C88.1501 5.63354 89.6305 5.79364 90.4554 5.85731C91.1059 5.90387 91.4053 6.2891 92.0234 6.25311C92.1071 6.24865 92.1731 5.67892 92.2022 5.66395C93.0151 5.17552 92.3523 6.43668 92.4197 6.71094C92.6617 7.70889 92.821 8.24799 93.7334 8.06227C93.9433 8.01994 95.0216 6.24792 95.4102 6.23923C95.9039 6.22853 95.5321 6.86602 96.0514 6.83867C96.0956 6.83707 96.2133 6.41062 96.4987 6.51649C97.8254 7.00269 99.1983 7.7123 100.577 8.13988C100.765 8.20006 100.753 7.45445 101.03 7.53122C102.362 7.90375 103.773 8.45337 104.887 9.24688C105.16 9.44422 104.788 9.82512 104.8 9.98661C104.873 10.9638 105.916 10.006 106.021 10.0234C108.545 10.4041 109.775 12.2383 112.248 12.8832C112.382 12.9138 113.989 12.2049 113.849 13.4732C113.843 13.559 113.671 14.8377 114.432 14.3208C114.48 14.289 114.527 13.6028 114.944 13.9108C115.358 14.2171 116.288 14.2791 116.534 15.2273C116.611 15.5257 116.426 16.8211 117.505 16.3738C117.57 16.3337 119.652 15.1025 119.133 16.5594C119.046 16.7988 118.107 18.069 119.22 17.8513C119.435 17.8096 119.408 17.36 119.866 17.4117C120.575 17.4937 120.983 18.313 122.024 18.2215C122.207 18.2029 123.341 17.7208 123.207 18.6576C123.185 18.8035 122.747 19.129 122.902 19.3297C123.636 20.2825 124.797 20.8156 125.418 21.8909C125.636 22.2702 124.896 22.7465 125.05 23.2074C125.209 23.6727 125.666 24.434 126.259 24.4877C126.856 24.5449 127.487 23.2348 128.052 23.6711C130.512 25.5882 131.808 28.583 133.278 31.2827C133.497 31.6868 133.724 31.1084 134.075 31.697C135.406 33.8302 137.549 37.7903 137.135 40.2124C136.821 42.1128 135.618 40.2018 135.647 41.5431C135.659 42.1873 137.341 42.4172 137.427 42.5652C138.255 43.8898 137.753 45.0482 138.157 46.3454C138.239 46.6169 138.837 46.2556 138.9 46.4909C138.983 46.7909 139.008 47.1061 139.013 47.4233C139.043 48.1504 138.977 48.8679 139.003 49.5362C139.019 50.0133 139.511 49.9428 139.451 50.3925C139.302 51.4579 138.949 52.3928 138.272 53.2587C138.211 53.3318 137.756 52.6186 137.563 53.3215C137.234 54.4874 136.339 55.5875 136.183 56.9204C136.137 57.3137 137.116 57.881 136.024 58.2265C135.791 58.2973 134.767 57.4159 135.279 58.7793C135.388 58.9879 135.76 61.2069 134.467 61.1794C134.126 61.1797 132.983 60.8361 132.862 61.2346C132.847 61.2935 133.443 61.5265 133.267 61.8147C132.648 62.8117 131.649 63.7026 130.947 64.5737C130.751 64.8155 131.509 64.9775 131.197 65.3265C130.344 66.2871 128.922 67.1842 127.877 67.6817C127.477 67.8748 127.428 67.2785 127.369 67.2514C126.435 66.7931 126.888 67.9725 126.784 68.1298C126.129 69.0885 125.149 69.0218 124.438 69.6306C124.238 69.7987 124.697 70.2076 124.68 70.2791C124.478 70.9958 124.283 69.884 123.932 69.957C122.954 70.1528 122.016 70.7296 121.256 71.2181C120.968 71.4031 121.627 71.8245 121.363 71.9844C119.791 72.9476 118.021 73.7258 116.279 74.0964C115.946 74.1667 115.923 73.6026 115.811 73.5215C115.04 72.9493 114.861 74.2734 114.753 74.4384C114.275 75.1848 113.854 74.8591 113.302 75.1821C110.587 76.7816 106.884 77.8058 104.127 78.5251C100.473 79.4875 97.5922 79.8334 94.239 80.9142C94.0251 80.9821 94.4313 81.5926 94.2489 81.6598C91.8771 82.4978 89.4432 82.8565 87.0688 83.6571C86.8736 83.7215 87.3205 84.2915 87.0121 84.4166C86.3804 84.6775 85.5407 84.846 84.83 84.8C84.4838 84.7786 84.7831 84.1231 84.438 84.1127C83.6372 84.0863 82.8111 84.233 82.0574 84.5168C81.7367 84.6389 82.3895 85.1818 81.9602 85.2892C79.0519 86.0305 76.1875 86.7715 73.0339 86.5239C72.8176 86.5067 72.3641 85.1968 71.9864 85.5423C72.0297 85.9227 72.1205 86.3621 72.1873 86.7645C67.9531 87.8454 63.6539 88.1582 59.3233 88.8234C59.1437 88.851 59.5757 89.5161 59.2286 89.5732C57.1983 89.9077 55.3115 90.421 53.0445 90.0433C52.827 90.0056 52.7319 88.7241 52.1613 89.0087C52.0542 89.0612 51.2103 89.3638 51.0049 89.6761C50.9775 89.7226 51.2427 90.2872 50.9355 90.3515C49.1894 90.7083 47.3379 90.8394 45.6513 90.7052C45.3664 90.6841 45.5825 90.0112 45.3655 89.9925C44.582 89.9307 43.8691 90.0643 43.2006 90.1598C42.3576 90.2783 41.8088 90.3258 41.007 90.1359C40.0236 89.867 40.2885 88.7243 39.6752 87.7082C39.5411 87.5708 38.9886 87.6127 38.9219 86.9856C38.678 85.4182 38.6845 83.6695 38.3972 82.0021C38.382 81.9122 38.3359 81.8737 38.2865 81.8512C38.2812 81.8235 38.0656 81.8361 38.027 81.8115C37.9664 81.7896 37.9677 81.7443 37.9572 81.6523C37.9546 81.5594 37.8998 81.4244 37.9652 81.1955C38.0771 81.1235 38.431 80.7875 38.5696 80.4701C38.646 80.253 38.3839 79.639 38.563 79.3512C38.6093 79.2792 38.6654 79.2563 38.7304 79.2569C38.7715 79.2603 38.818 79.2876 38.8691 79.3128C38.9714 79.3633 39.0909 79.4058 39.218 79.2336C39.4821 78.8839 39.2404 78.1797 39.8982 78.0089ZM84.8789 7.22269C85.2397 7.92529 85.783 5.74759 85.1374 6.15911C85.1056 6.18162 84.8598 7.18796 84.8789 7.22269ZM25.1171 3.49866C25.7826 4.46538 26.1741 2.99743 25.6973 2.24853C25.2198 1.50073 24.9139 3.20575 25.1171 3.49866ZM18.4513 4.51718C19.2627 5.25539 19.2233 2.07227 18.4241 2.75832C18.3778 2.79718 18.404 4.47435 18.4513 4.51718ZM41.7964 87.129C41.7832 87.1007 41.3995 87.1211 41.3972 87.1511C41.2862 87.8839 42.0526 87.8427 41.7964 87.129ZM11.9087 5.71553C12.1604 6.12862 12.7813 5.58706 12.4608 5.0732C12.2002 4.65985 11.5918 5.20173 11.9087 5.71553ZM108.7 17.5892C108.692 17.6225 108.931 17.7752 109.01 17.6039C109.267 17.0512 108.835 17.0283 108.7 17.5892ZM0.643291 6.77033C2.35051 6.69959 3.57371 9.21925 1.79739 9.10815C1.49412 9.08685 2.35697 8.20528 1.94493 8.01122C1.75382 7.92316 1.6027 7.96189 1.47331 8.0567C1.363 8.14938 1.11227 8.31616 0.971725 8.45687C0.814484 8.5994 0.677133 8.72576 0.547964 8.76456C0.512461 8.79215 0.035997 8.78592 0.0250149 8.56506C0.0292419 8.48329 -0.124006 8.067 0.27976 7.60684C0.384072 7.18229 0.59387 6.76769 0.645856 6.76635C0.645015 6.76767 0.644134 6.769 0.643291 6.77033ZM84.599 9.91766C84.6025 9.94861 84.9816 10.0587 84.997 10.0321C85.3569 9.381 84.5894 9.15778 84.599 9.91766ZM121.402 28.0422C121.375 28.1012 121.96 28.776 122.02 28.7578C123.194 28.2901 121.976 26.8807 121.402 28.0422ZM58.2074 7.98413C57.7328 8.66791 57.219 8.71671 56.9375 7.79608C57.3607 7.87251 57.7879 7.90948 58.2074 7.98413Z" fill="#4B4B66"/> </svg>