<svg width="41" height="41" viewBox="0 0 41 41" fill="none" xmlns="http://www.w3.org/2000/svg"> <path d="M38.2533 33.9146C38.3405 33.9314 38.332 34.2227 38.4075 34.2981C38.7216 34.6191 38.7776 34.8608 39.048 35.1791C39.456 35.637 40.9046 36.5122 40.3548 37.6297C40.3548 37.6297 40.3548 37.6297 40.3548 37.6297C40.3548 37.6297 40.3547 37.6298 40.3547 37.6298C40.3547 37.6298 40.3547 37.6298 40.3547 37.6298C40.3492 37.6409 40.3436 37.6521 40.3377 37.6634C40.2266 37.8757 39.986 38.0399 39.8443 38.2796C39.7025 38.5195 38.9285 40.1288 38.6848 40.1626C38.3361 40.2023 37.8731 39.5384 37.7169 39.4991C37.6077 39.4769 37.3995 39.5997 37.2526 39.5866C36.7775 39.5464 36.6227 39.3347 35.9929 39.7086C35.9657 39.4015 35.9427 39.0858 35.9238 38.7618C35.6638 38.8173 35.5434 38.3452 35.4156 38.3176C35.31 38.2966 35.1427 38.4985 35.0349 38.472C34.9131 38.4439 34.8584 38.132 34.6328 38.0894C34.2635 38.0185 33.8972 38.6166 33.6491 38.6279C33.3911 38.6412 33.2283 38.1769 32.8413 38.3113C32.7713 38.3717 32.7011 38.4325 32.6308 38.4937C32.5749 38.6658 32.5194 38.8373 32.4642 39.0081C32.2854 39.0429 32.3909 38.6873 32.2656 38.64C32.1183 38.5842 31.8806 38.8861 31.7786 38.8544C31.6951 38.8283 31.7119 38.5286 31.5958 38.5107C31.4269 38.4838 31.2707 38.8822 31.1492 38.93C31.1017 38.947 30.3606 38.984 30.3227 38.9782C30.0422 38.9179 30.292 38.3552 30.1024 38.2381C29.5763 37.913 28.7389 38.1837 28.0947 38.2034C27.8077 38.2107 27.5672 38.0987 27.3708 37.9236C28.5248 36.4828 28.2997 34.9388 27.3889 37.5384C27.2933 37.0939 26.7684 37.7076 26.567 37.5112C26.4378 37.3822 26.4982 36.9884 26.2582 36.9167C25.8342 36.7861 24.8568 37.6869 25.6718 35.7451C25.0205 35.9037 24.9517 35.0346 23.9257 36.6997C23.7459 36.7647 23.933 35.6146 23.8643 35.4172C23.7958 35.2378 23.0233 34.3629 22.8741 34.266C22.7231 34.1729 22.4508 34.0261 22.2332 34.1315C21.9635 34.2563 20.8918 36.1386 21.6901 33.7628C21.2412 33.7988 21.144 33.6844 20.9423 33.2794C20.9058 33.2061 21.0669 32.8619 21.0321 32.8466C20.9599 32.8157 20.7125 33.0165 20.5679 32.9933C20.3301 32.9555 20.5673 32.1761 20.0441 33.2974C19.8119 33.4257 19.579 33.5554 19.3455 33.6864C19.4024 33.4503 19.4595 33.2137 19.517 32.9764C19.3258 33.1813 19.1341 33.3871 18.942 33.5938C19.8327 31.9994 18.8321 32.74 18.54 33.7534C18.433 33.3049 18.3286 32.851 18.2266 32.3922C19.1935 30.5203 17.7424 31.914 17.2838 32.9769C17.2534 32.9625 17.2229 32.9482 17.1925 32.9338C17.1697 32.313 16.715 32.6242 16.553 32.1404C16.392 31.6544 16.5161 31.4785 16.8553 30.5418C16.7531 30.5581 16.6508 30.5746 16.5485 30.5912C14.9318 32.8726 17.1042 28.6354 15.4799 30.2169C16.0279 28.5539 15.0842 29.1175 14.487 29.4333C14.4177 29.4697 14.2659 29.7764 14.1633 29.8457C13.9142 30.0117 13.7605 29.4561 13.2825 30.4572C13.303 30.1149 13.3242 29.7715 13.3458 29.4271C13.1578 29.5634 12.9697 29.7002 12.7813 29.8373C12.628 30.1502 12.4747 30.463 12.3214 30.7758C12.6463 29.621 12.1327 29.8876 12.1044 29.5615C12.0994 29.4956 12.3061 29.059 12.2694 28.8965C12.2275 28.7043 11.9575 28.7366 11.8923 28.5389C11.6036 28.9972 11.3147 29.4559 11.0255 29.9152C10.659 30.0693 11.2039 28.7544 11.1142 28.5899C11.0977 28.561 10.5969 28.4394 10.5589 28.4553C10.2514 28.5777 9.77002 29.6984 9.30344 29.1932C9.22075 29.1024 9.32384 28.6836 9.23792 28.6243C9.0865 28.5188 8.16469 29.1469 7.73255 29.9272C8.02361 28.8345 7.28775 28.9889 7.27275 28.6244C7.26904 28.5127 7.57226 27.8696 7.49334 27.6635C7.4297 27.4958 6.87383 27.8604 6.76622 27.7023C6.65317 27.5321 6.86071 26.9675 6.80825 26.8949C6.75843 26.8269 6.48313 27.2303 6.39281 27.1832C6.38634 27.1796 6.38006 27.1756 6.37397 27.1713L9.82285e-05 23.9908L5.69507 19.7928C5.97228 19.6473 6.64085 20.0748 6.84598 19.9393C6.8492 19.9372 6.85233 19.9349 6.85535 19.9326C7.13818 19.7118 6.55139 18.3939 6.41783 17.7115C6.53402 17.7411 6.77728 17.9432 6.84268 17.8985C7.65768 17.3539 8.70955 16.9171 9.68942 16.5887C10.1446 16.4365 12.2108 17.3111 10.0556 14.9272C9.85159 14.3887 11.5657 14.7606 11.7562 14.6495C11.9474 14.5396 11.7521 13.9874 11.8895 13.8836C12.3047 13.5714 12.8479 13.6877 13.0824 12.9445C13.1421 12.7513 12.8944 12.1264 12.9802 12.0796C13.0843 12.0244 13.5689 12.4645 13.7188 12.413C14.073 12.2862 14.5107 11.7515 14.8655 11.65C14.931 11.6325 15.2771 12.0595 15.4546 12.1467C16.1465 12.4874 16.4375 12.2195 15.3446 10.8705C16.3111 11.414 16.1268 10.4707 16.4504 10.2073C17.1354 9.65123 18.7338 9.10864 18.992 8.17035C19.1553 7.5793 18.721 7.01763 19.7125 7.15473C19.9321 7.1845 20.1786 7.25148 20.4416 7.28301C21.0625 7.36306 22.17 8.15767 21.5608 6.76726C22.2309 6.82989 22.4199 6.41763 23.4921 7.2353C23.3495 6.97094 23.2075 6.70741 23.0661 6.4447C23.1152 6.40805 23.1643 6.37145 23.2135 6.33491C23.4007 6.55392 23.5876 6.77259 23.7742 6.99092C24.1944 6.82016 23.9934 5.61932 24.3302 5.44961C24.8896 5.15784 26.5646 4.7204 27.2818 4.69414C27.6625 4.68019 27.3637 4.25133 28.1668 5.02788C28.1823 4.93143 28.1982 4.83547 28.2145 4.74002C28.1123 4.52946 28.0107 4.31985 27.9098 4.1112C28.2616 3.91 28.8945 3.96057 29.2284 3.76725C29.8317 3.40814 30.4294 2.45547 31.2768 2.41883C31.4888 2.40894 31.9234 2.62407 32.0713 2.53439C32.2871 2.40459 31.9537 1.8556 32.2351 1.70103C32.7268 1.44352 34.0534 1.51495 34.4749 1.21357C34.6024 1.12715 34.5443 0.929106 34.6269 0.862189C34.9728 0.580764 35.3084 0.418913 35.5289 1.27554e-05C36.2309 0.173975 36.5416 0.656916 37.0155 1.05453C37.3761 1.35796 38.2341 1.95579 38.4866 2.21594C38.6663 2.4018 38.7805 2.76076 38.9862 2.95931C38.7483 3.55955 38.4436 3.53719 37.8543 3.49351C37.2762 4.09674 36.6976 4.69941 36.1183 5.30121C35.9396 5.18695 35.7591 5.0703 35.5768 4.9513C35.5765 4.95093 35.5762 4.95056 35.576 4.95018C35.1926 4.96555 35.4241 5.50027 35.378 5.72395C34.9605 7.89745 32.0772 9.41105 30.5876 10.4227C30.2741 10.6508 29.591 11.8442 29.0886 11.6154C28.9579 11.5553 28.6534 11.1791 28.5851 11.21C28.2612 11.8706 27.9459 12.5429 27.638 13.225C26.1463 13.4763 25.4835 14.9153 24.5407 15.9199C21.9689 18.6096 19.4802 21.3495 16.5575 23.4681C15.9915 23.8761 15.5814 24.807 14.8557 24.9763C14.5534 25.0477 13.8413 24.2914 14.0045 25.1366C13.8349 24.9156 13.6652 24.6947 13.4955 24.4737C13.4366 24.9413 13.65 25.5768 13.3969 25.8502C13.1833 26.0798 12.5562 26.6042 12.2738 26.6815C12.1286 26.7234 11.8586 26.2732 11.7545 26.3541C11.7341 26.3706 11.7167 26.3968 11.7014 26.4307C11.5966 26.6629 11.5938 27.252 11.4316 27.485L10.6105 18.5615C10.6411 18.5657 10.6687 18.5734 10.6929 18.5854C10.9454 18.7111 11.1052 19.4635 11.3375 19.4829C12.172 19.556 13.3209 19.1483 13.9538 19.7474C14.128 19.9143 14.0944 20.6524 14.1666 20.6688C14.3085 20.699 14.6324 20.1357 14.7528 20.105C15.363 19.9518 15.6833 20.9954 16.085 21.2446C17.3933 22.0579 18.9367 22.5994 20.2139 23.461C21.0233 24.0002 22.4551 24.7199 23.0295 25.5691C23.1535 25.7518 22.8268 26.2999 22.967 26.38C23.1227 26.4684 23.3963 26.1317 23.4838 26.143C24.0937 26.2131 25.3739 26.5024 25.6563 27.1648C25.71 27.2912 25.5661 27.7546 25.6207 27.7846C25.6479 27.8006 25.8515 27.5481 25.951 27.5701C26.8291 27.7638 27.2899 28.2697 27.9766 28.8127C29.2978 29.8403 31.139 30.4002 32.4694 31.5966C32.7596 31.8567 32.6562 32.6495 32.7053 32.6693C32.811 32.7167 33.089 32.3195 33.339 32.3426C34.1644 32.4309 34.829 33.4583 35.5486 33.6753C35.9034 33.784 36.5513 33.6076 36.8932 33.7294C37.1667 33.8256 37.6366 34.4109 37.8326 34.3017C37.9513 34.2364 38.1575 33.8985 38.2533 33.9146ZM26.2151 36.4086C26.6941 35.5513 25.8277 36.091 25.785 36.6358C25.776 36.7573 26.0911 36.6306 26.2151 36.4086ZM9.25611 18.9433C9.03096 18.6496 8.8058 18.356 8.58064 18.0623C8.61553 18.2275 8.65049 18.3927 8.68551 18.5581C8.8506 18.7129 9.01567 18.8677 9.18071 19.0225C9.20584 18.9961 9.23097 18.9697 9.25611 18.9433Z" fill="#4B4B66"/> </svg>